<svg width="32" height="32" viewBox="0 0 32 32" fill="none" xmlns="http://www.w3.org/2000/svg">
<rect width="32" height="32" rx="16" fill="#F7F7F7"/>
<path fill-rule="evenodd" clip-rule="evenodd" d="M27.5952 14.2297C27.7946 14.2297 27.9068 14.3032 27.9068 14.435H27.9099C27.9099 14.5263 27.8445 14.5947 27.7292 14.62L28.0002 14.8963H27.7603L27.5298 14.6378V14.8963H27.3336V14.2297H27.5952ZM27.5267 14.5263H27.5579C27.6575 14.5263 27.7074 14.4958 27.7074 14.4375C27.7074 14.3792 27.6575 14.3513 27.561 14.3513H27.5267V14.5263Z" fill="black"/>
<path fill-rule="evenodd" clip-rule="evenodd" d="M27.1414 14.4199C27.1414 14.2355 27.2891 14.0873 27.4762 14.0873C27.659 14.0873 27.8081 14.2355 27.8081 14.4199C27.8081 14.6044 27.6605 14.754 27.4762 14.754C27.292 14.754 27.1414 14.6044 27.1414 14.4199ZM27.2087 14.4214C27.2087 14.5725 27.3286 14.6945 27.4762 14.6945C27.6239 14.6945 27.7423 14.5695 27.7423 14.4214C27.7423 14.2733 27.6254 14.1483 27.4762 14.1483C27.3271 14.1483 27.2087 14.2703 27.2087 14.4214Z" fill="black"/>
<path fill-rule="evenodd" clip-rule="evenodd" d="M25.6363 14.1164C26.4758 14.1164 26.9575 14.5239 26.9575 15.2312C26.9575 15.8095 26.656 16.1892 26.1067 16.3018L27.2828 17.8924H26.387L25.3786 16.3752H25.2835V17.8924H24.5565V14.1164H25.6363ZM25.2835 15.8551H25.4962C25.9616 15.8551 26.2081 15.6374 26.2081 15.2705C26.2081 14.9035 25.9616 14.7111 25.5074 14.7111H25.2835V15.8551Z" fill="black"/>
<path d="M22.0079 17.8924H24.0736V17.2534H22.7349V16.2334H24.0236V15.5944H22.7349V14.7567H24.0736V14.1164H22.0079V17.8924Z" fill="black"/>
<path d="M19.8797 16.6523L18.8838 14.1164H18.0893L19.6733 17.9899H20.0649L21.6789 14.1164H20.8881L19.8797 16.6523Z" fill="black"/>
<path d="M18.2957 16.0006C18.2957 17.1053 17.4112 18 16.3189 18C15.2266 18 14.3421 17.1041 14.3421 16.0006C14.3421 14.8972 15.2266 14 16.3189 14C17.4112 14 18.2957 14.8959 18.2957 15.9994V16.0006Z" fill="url(#paint0_linear_0_240)"/>
<g opacity="0.65" style="mix-blend-mode:multiply">
<path d="M18.2957 16.0006C18.2957 17.1053 17.4112 18 16.3189 18C15.2266 18 14.3421 17.1041 14.3421 16.0006C14.3421 14.8972 15.2266 14 16.3189 14C17.4112 14 18.2957 14.8959 18.2957 15.9994V16.0006Z" fill="url(#paint1_linear_0_240)"/>
</g>
<path d="M11.2217 16.0069C11.2217 17.1167 12.0837 17.9772 13.1923 17.9772C13.5063 17.9772 13.774 17.9152 14.1056 17.757V16.8902C13.8141 17.185 13.5563 17.304 13.226 17.304C12.4929 17.304 11.9724 16.7662 11.9724 16.0019C11.9724 15.2768 12.5091 14.7048 13.1923 14.7048C13.5401 14.7048 13.8028 14.8301 14.1056 15.13V14.2632C13.7866 14.0987 13.5226 14.0316 13.2098 14.0316C12.1062 14.0316 11.2217 14.9098 11.2217 16.0082V16.0069Z" fill="black"/>
<path d="M9.91799 15.5653C9.48133 15.4021 9.35246 15.2933 9.35246 15.0895C9.35246 14.8516 9.58142 14.6707 9.89547 14.6707C10.1144 14.6707 10.2933 14.7618 10.4823 14.9769L10.8639 14.472C10.5511 14.1949 10.1757 14.0532 9.7666 14.0532C9.10598 14.0532 8.60177 14.5176 8.60177 15.1351C8.60177 15.6552 8.83698 15.9222 9.52012 16.1702C9.80538 16.2714 9.95052 16.3398 10.0231 16.3853C10.1682 16.4815 10.242 16.6169 10.242 16.7764C10.242 17.0826 10.0018 17.3091 9.67651 17.3091C9.32994 17.3091 9.04968 17.1332 8.88203 16.8055L8.41159 17.2635C8.7469 17.7621 9.14977 17.9823 9.70404 17.9823C10.461 17.9823 10.9915 17.4736 10.9915 16.7422C10.9915 16.1424 10.7463 15.8703 9.91799 15.5641V15.5653Z" fill="black"/>
<rect x="7.40814" y="14.1164" width="0.728174" height="3.77602" fill="black"/>
<path fill-rule="evenodd" clip-rule="evenodd" d="M4 14.1164H5.06849C6.24958 14.1164 7.07285 14.8921 7.0741 16.0057C7.0741 16.5625 6.82136 17.099 6.39597 17.4558C6.03689 17.7583 5.62901 17.8924 5.06349 17.8924H4V14.1164ZM4.9221 17.2534C5.39254 17.2534 5.69032 17.1623 5.91928 16.9535C6.17076 16.727 6.32215 16.3638 6.32215 16.0019C6.32215 15.64 6.17076 15.2882 5.91928 15.0617C5.6778 14.8415 5.39254 14.7567 4.9221 14.7567H4.72692V17.2534H4.9221Z" fill="black"/>
<defs>
<linearGradient id="paint0_linear_0_240" x1="18.4024" y1="16.9103" x2="17.0108" y2="14.7573" gradientUnits="userSpaceOnUse">
<stop stop-color="#F9A020"/>
<stop offset="0.25" stop-color="#F89B20"/>
<stop offset="0.53" stop-color="#F68D20"/>
<stop offset="0.62" stop-color="#F68820"/>
<stop offset="0.73" stop-color="#F58120"/>
<stop offset="1" stop-color="#F47521"/>
</linearGradient>
<linearGradient id="paint1_linear_0_240" x1="19.0696" y1="16.5615" x2="17.0318" y2="12.6251" gradientUnits="userSpaceOnUse">
<stop stop-color="#F68820" stop-opacity="0.01"/>
<stop offset="0.11" stop-color="#EE7F22" stop-opacity="0.14"/>
<stop offset="0.31" stop-color="#E37226" stop-opacity="0.35"/>
<stop offset="0.5" stop-color="#DB6829" stop-opacity="0.52"/>
<stop offset="0.69" stop-color="#D5602C" stop-opacity="0.64"/>
<stop offset="0.85" stop-color="#D15C2D" stop-opacity="0.71"/>
<stop offset="0.98" stop-color="#D05B2E" stop-opacity="0.74"/>
</linearGradient>
</defs>
</svg>
