<svg width="32" height="32" viewBox="0 0 32 32" fill="none" xmlns="http://www.w3.org/2000/svg">
<rect width="32" height="32" rx="16" fill="#F7F7F7"/>
<path d="M13.1156 21.2413H18.8843V10.7587H13.1156V21.2413Z" fill="#FF5F00"/>
<path d="M13.4819 16C13.4819 13.8734 14.4666 11.9793 16 10.7587C14.8785 9.86596 13.4636 9.33337 11.9256 9.33337C8.28471 9.33337 5.33331 12.3182 5.33331 16C5.33331 19.6818 8.28471 22.6667 11.9256 22.6667C13.4636 22.6667 14.8785 22.1341 16 21.2413C14.4666 20.0206 13.4819 18.1267 13.4819 16" fill="#EB001B"/>
<path fill-rule="evenodd" clip-rule="evenodd" d="M20.0744 22.6666C23.7151 22.6666 26.6667 19.6818 26.6667 16C26.6667 12.3181 23.7151 9.33331 20.0744 9.33331C18.5364 9.33331 17.1213 9.8659 16 10.7587C17.5334 11.9794 18.5181 13.8735 18.5181 16C18.5181 18.1266 17.5334 20.0207 16 21.2412C17.1213 22.134 18.5364 22.6666 20.0744 22.6666ZM26.4608 20.131V19.8723H26.394L26.3172 20.0503L26.2403 19.8723H26.1735V20.131H26.2206V19.9359L26.2927 20.1042H26.3416L26.4138 19.9355V20.131H26.4608ZM26.0376 20.131V19.9164H26.1233V19.8727H25.9054V19.9164H25.9909V20.131H26.0376Z" fill="#F79E1B"/>
</svg>
