<svg width="32" height="32" viewBox="0 0 32 32" fill="none" xmlns="http://www.w3.org/2000/svg">
<rect width="32" height="32" rx="16" fill="#F7F7F7"/>
<path fill-rule="evenodd" clip-rule="evenodd" d="M16.083 14.5876C16.083 12.9087 17.6482 12 19.3996 12C20.5213 12 21.3167 12.3435 21.3167 12.3435L20.963 13.9797C20.963 13.9797 20.232 13.6093 19.336 13.6093C18.5419 13.6093 18.1591 13.9588 18.1591 14.2779C18.1591 14.6362 18.6032 14.8721 19.1369 15.1555C19.9402 15.5822 20.9466 16.1167 20.9466 17.3391C20.9466 19.0467 19.4398 20 17.5249 20C16.233 20 15.2599 19.5697 15.2599 19.5697L15.6213 17.8755C15.6213 17.8755 16.4661 18.3849 17.5963 18.3849C18.3926 18.3849 18.8589 18.0204 18.8589 17.6131C18.8589 17.2119 18.3813 16.9543 17.8223 16.6527C17.0337 16.2272 16.083 15.7143 16.083 14.5876ZM24.6998 12.1235C24.2175 12.1235 23.962 12.3819 23.7745 12.8336L20.8444 19.8726H22.9417L23.3475 18.6995H25.9027L26.1494 19.8726H28L26.3855 12.1235H24.6998ZM24.9725 14.2171L25.5942 17.1249H23.9287L24.9725 14.2171ZM13.5452 12.1235L11.8999 19.8726H13.8999L15.5394 12.1235H13.5452ZM3.33331 12.3705L3.37572 12.1235H6.71929C7.20213 12.1235 7.59659 12.4151 7.67446 12.9262L8.52361 17.3922L10.6045 12.1235H12.7019L9.46335 19.8726H7.36121L5.79304 13.8215C5.64913 13.2632 5.58826 13.0835 4.73378 12.7747C4.07014 12.5055 3.33331 12.3705 3.33331 12.3705Z" fill="#1434CB"/>
</svg>
